<svg width="1200" height="520" viewBox="0 0 1200 520" fill="none" xmlns="http://www.w3.org/2000/svg">
  <defs>
    <linearGradient id="static-bg" x1="118" y1="48" x2="1050" y2="468" gradientUnits="userSpaceOnUse">
      <stop stop-color="#F9FBFF"/>
      <stop offset="1" stop-color="#F3FAF6"/>
    </linearGradient>
    <linearGradient id="static-bridge" x1="418" y1="236" x2="804" y2="236" gradientUnits="userSpaceOnUse">
      <stop stop-color="#6366F1"/>
      <stop offset="1" stop-color="#10B981"/>
    </linearGradient>
  </defs>

  <rect width="1200" height="520" rx="44" fill="url(#static-bg)"/>
  <rect x="98" y="124" width="340" height="196" rx="30" fill="#FFFFFF" stroke="#E2E8F0"/>
  <rect x="122" y="148" width="292" height="148" rx="22" fill="#111827"/>
  <rect x="156" y="180" width="122" height="14" rx="7" fill="#818CF8"/>
  <rect x="156" y="212" width="188" height="12" rx="6" fill="#CBD5E1" fill-opacity="0.74"/>
  <rect x="156" y="238" width="92" height="22" rx="11" fill="#6366F1"/>

  <rect x="792" y="114" width="182" height="294" rx="34" fill="#FFFFFF" stroke="#E2E8F0"/>
  <rect x="812" y="134" width="142" height="254" rx="30" fill="#0F172A"/>
  <rect x="838" y="174" width="90" height="90" rx="28" fill="#10B981" fill-opacity="0.18"/>
  <path d="M858 226L882 248L916 198" stroke="#34D399" stroke-width="10" stroke-linecap="round" stroke-linejoin="round"/>
  <rect x="842" y="292" width="88" height="14" rx="7" fill="#FFFFFF" fill-opacity="0.92"/>
  <rect x="842" y="320" width="66" height="14" rx="7" fill="#CBD5E1" fill-opacity="0.72"/>

  <path d="M416 228C494 188 550 172 604 172C696 172 748 198 804 246" stroke="url(#static-bridge)" stroke-width="14" stroke-linecap="round"/>
  <path d="M430 274C516 304 562 314 616 314C688 314 742 300 804 230" stroke="url(#static-bridge)" stroke-width="7" stroke-linecap="round" stroke-opacity="0.42"/>
  <circle cx="606" cy="240" r="24" fill="#FFFFFF" stroke="#CBD5E1"/>
  <circle cx="606" cy="240" r="10" fill="#10B981"/>

  <rect x="486" y="62" width="236" height="92" rx="26" fill="#FFFFFF" fill-opacity="0.96" stroke="#E2E8F0"/>
  <circle cx="542" cy="108" r="22" fill="#10B981" fill-opacity="0.16"/>
  <circle cx="542" cy="100" r="8" fill="#10B981"/>
  <path d="M528 124C532 112 540 108 542 108C544 108 552 112 556 124" stroke="#10B981" stroke-width="8" stroke-linecap="round"/>
  <rect x="580" y="86" width="102" height="14" rx="7" fill="#0F172A" fill-opacity="0.68"/>
  <rect x="580" y="114" width="72" height="10" rx="5" fill="#94A3B8" fill-opacity="0.58"/>

  <path d="M560 148C516 186 470 210 376 236" stroke="#6366F1" stroke-width="5" stroke-linecap="round" stroke-dasharray="8 10"/>
  <path d="M648 148C704 188 744 212 844 236" stroke="#10B981" stroke-width="5" stroke-linecap="round" stroke-dasharray="8 10"/>

  <rect x="248" y="336" width="208" height="44" rx="22" fill="#FFFFFF" fill-opacity="0.92" stroke="#C7D2FE"/>
  <circle cx="282" cy="358" r="10" fill="#6366F1" fill-opacity="0.18"/>
  <path d="M276 358H288" stroke="#6366F1" stroke-width="4" stroke-linecap="round"/>
  <rect x="304" y="352" width="122" height="12" rx="6" fill="#1E293B" fill-opacity="0.7"/>

  <rect x="744" y="338" width="214" height="44" rx="22" fill="#FFFFFF" fill-opacity="0.92" stroke="#A7F3D0"/>
  <circle cx="778" cy="360" r="10" fill="#10B981" fill-opacity="0.18"/>
  <path d="M772 360L777 365L786 354" stroke="#10B981" stroke-width="4" stroke-linecap="round" stroke-linejoin="round"/>
  <rect x="798" y="354" width="126" height="12" rx="6" fill="#1E293B" fill-opacity="0.7"/>
</svg>
